<svg width="375" height="8" viewBox="0 0 375 8" fill="none" xmlns="http://www.w3.org/2000/svg">
<path d="M0.646447 3.64645C0.451184 3.84171 0.451184 4.15829 0.646447 4.35355L3.82843 7.53553C4.02369 7.7308 4.34027 7.7308 4.53553 7.53553C4.7308 7.34027 4.7308 7.02369 4.53553 6.82843L1.70711 4L4.53553 1.17157C4.7308 0.97631 4.7308 0.659728 4.53553 0.464466C4.34027 0.269204 4.02369 0.269204 3.82843 0.464466L0.646447 3.64645ZM374.354 4.35352C374.549 4.15826 374.549 3.84168 374.354 3.64641L371.172 0.464434C370.976 0.269172 370.66 0.269172 370.464 0.464434C370.269 0.659696 370.269 0.976278 370.464 1.17154L373.293 3.99997L370.464 6.82839C370.269 7.02366 370.269 7.34024 370.464 7.5355C370.66 7.73076 370.976 7.73076 371.172 7.5355L374.354 4.35352ZM1 4L1 4.5L374 4.49997L374 3.99997L374 3.49997L1 3.5L1 4Z" fill="#2957E2"/>
</svg>
