<svg width="217" height="8" viewBox="0 0 217 8" fill="none" xmlns="http://www.w3.org/2000/svg">
<path d="M0.646447 3.64645C0.451184 3.84171 0.451184 4.15829 0.646447 4.35355L3.82843 7.53553C4.02369 7.7308 4.34027 7.7308 4.53553 7.53553C4.7308 7.34027 4.7308 7.02369 4.53553 6.82843L1.70711 4L4.53553 1.17157C4.7308 0.97631 4.7308 0.659728 4.53553 0.464466C4.34027 0.269204 4.02369 0.269204 3.82843 0.464466L0.646447 3.64645ZM216.354 4.35353C216.549 4.15827 216.549 3.84169 216.354 3.64643L213.172 0.464448C212.976 0.269185 212.66 0.269185 212.464 0.464448C212.269 0.65971 212.269 0.976292 212.464 1.17155L215.293 3.99998L212.464 6.82841C212.269 7.02367 212.269 7.34025 212.464 7.53552C212.66 7.73078 212.976 7.73078 213.172 7.53552L216.354 4.35353ZM1 4L1 4.5L216 4.49998L216 3.99998L216 3.49998L1 3.5L1 4Z" fill="#2957E2"/>
</svg>
