<svg width="57" height="83" viewBox="0 0 57 83" fill="none" xmlns="http://www.w3.org/2000/svg">
<path d="M28.25 2H15.125C11.644 2 8.30564 3.38281 5.84422 5.84422C3.38281 8.30564 2 11.644 2 15.125C2 18.606 3.38281 21.9444 5.84422 24.4058C8.30564 26.8672 11.644 28.25 15.125 28.25M28.25 2V28.25M28.25 2H41.375C43.0986 2 44.8053 2.33949 46.3977 2.99908C47.9901 3.65867 49.437 4.62545 50.6558 5.84422C51.8745 7.06299 52.8413 8.50988 53.5009 10.1023C54.1605 11.6947 54.5 13.4014 54.5 15.125C54.5 16.8486 54.1605 18.5553 53.5009 20.1477C52.8413 21.7401 51.8745 23.187 50.6558 24.4058C49.437 25.6245 47.9901 26.5913 46.3977 27.2509C44.8053 27.9105 43.0986 28.25 41.375 28.25M28.25 28.25H15.125M28.25 28.25H41.375M28.25 28.25V54.5M15.125 28.25C11.644 28.25 8.30564 29.6328 5.84422 32.0942C3.38281 34.5556 2 37.894 2 41.375C2 44.856 3.38281 48.1944 5.84422 50.6558C8.30564 53.1172 11.644 54.5 15.125 54.5M41.375 28.25C39.6514 28.25 37.9447 28.5895 36.3523 29.2491C34.7599 29.9087 33.313 30.8755 32.0942 32.0942C30.8755 33.313 29.9087 34.7599 29.2491 36.3523C28.5895 37.9447 28.25 39.6514 28.25 41.375C28.25 43.0986 28.5895 44.8053 29.2491 46.3977C29.9087 47.9901 30.8755 49.437 32.0942 50.6558C33.313 51.8745 34.7599 52.8413 36.3523 53.5009C37.9447 54.1605 39.6514 54.5 41.375 54.5C43.0986 54.5 44.8053 54.1605 46.3977 53.5009C47.9901 52.8413 49.437 51.8745 50.6558 50.6558C51.8745 49.437 52.8413 47.9901 53.5009 46.3977C54.1605 44.8053 54.5 43.0986 54.5 41.375C54.5 39.6514 54.1605 37.9447 53.5009 36.3523C52.8413 34.7599 51.8745 33.313 50.6558 32.0942C49.437 30.8755 47.9901 29.9087 46.3977 29.2491C44.8053 28.5895 43.0986 28.25 41.375 28.25ZM15.125 54.5C11.644 54.5 8.30564 55.8828 5.84422 58.3442C3.38281 60.8056 2 64.144 2 67.625C2 71.106 3.38281 74.4444 5.84422 76.9058C8.30564 79.3672 11.644 80.75 15.125 80.75C18.606 80.75 21.9444 79.3672 24.4058 76.9058C26.8672 74.4444 28.25 71.106 28.25 67.625V54.5M15.125 54.5H28.25" stroke="#1E1E1E" stroke-width="4" stroke-linecap="round" stroke-linejoin="round"/>
</svg>
